<svg width="128" height="121" viewBox="0 0 128 121" fill="none" xmlns="http://www.w3.org/2000/svg">
<path d="M88.7812 22.6936C61.2812 22.6936 69.5312 74.4894 55.7812 110.927L39.2812 103.229C66.7812 103.229 58.5312 49.7394 72.2812 11.9268L88.7812 22.6936Z" fill="#4188D9"/>
<path d="M0.78125 61.1143V55.3018C6 55.3018 9.64062 54.2081 11.7031 52.0206C13.7969 49.8331 14.8437 46.1768 14.8437 41.0519V26.0519C14.8437 21.7394 15.25 18.005 16.0625 14.8487C16.9062 11.6925 18.2656 9.0831 20.1406 7.0206C22.0156 4.9581 24.5156 3.42685 27.6406 2.42686C30.7656 1.42685 34.625 0.926849 39.2187 0.926849V10.1144C35.5937 10.1144 32.7344 10.6769 30.6406 11.8018C28.5781 12.9269 27.1094 14.6769 26.2344 17.0519C25.3906 19.3956 24.9687 22.3956 24.9687 26.0519V44.8019C24.9687 47.2394 24.6406 49.4581 23.9844 51.4581C23.3594 53.4581 22.1875 55.1769 20.4687 56.6143C18.75 58.0519 16.2969 59.1612 13.1094 59.9425C9.95312 60.7237 5.84375 61.1143 0.78125 61.1143ZM39.2187 120.927C34.625 120.927 30.7656 120.427 27.6406 119.427C24.5156 118.427 22.0156 116.896 20.1406 114.833C18.2656 112.771 16.9062 110.161 16.0625 107.005C15.25 103.849 14.8437 100.114 14.8437 95.8019V80.8018C14.8437 75.6768 13.7969 72.0206 11.7031 69.8331C9.64062 67.6456 6 66.5518 0.78125 66.5518V60.7393C5.84375 60.7393 9.95312 61.13 13.1094 61.9112C16.2969 62.6925 18.75 63.8018 20.4687 65.2393C22.1875 66.6768 23.3594 68.3956 23.9844 70.3956C24.6406 72.3956 24.9687 74.6143 24.9687 77.0518V95.8019C24.9687 99.4581 25.3906 102.458 26.2344 104.802C27.1094 107.146 28.5781 108.88 30.6406 110.005C32.7344 111.161 35.5937 111.739 39.2187 111.739V120.927ZM0.78125 66.5518V55.3018H11.8437V66.5518H0.78125Z" fill="#4188D9"/>
<path d="M127.219 60.7393V66.5518C122 66.5518 118.344 67.6456 116.25 69.8331C114.187 72.0206 113.156 75.6768 113.156 80.8018V95.8019C113.156 100.114 112.734 103.849 111.891 107.005C111.078 110.161 109.734 112.771 107.859 114.833C105.984 116.896 103.484 118.427 100.359 119.427C97.2344 120.427 93.375 120.927 88.7812 120.927V111.739C92.4062 111.739 95.25 111.161 97.3125 110.005C99.4062 108.88 100.875 107.146 101.719 104.802C102.594 102.458 103.031 99.4581 103.031 95.8019V77.0518C103.031 74.6143 103.344 72.3956 103.969 70.3956C104.625 68.3956 105.812 66.6768 107.531 65.2393C109.25 63.8018 111.687 62.6925 114.844 61.9112C118.031 61.13 122.156 60.7393 127.219 60.7393ZM88.7812 0.926849C93.375 0.926849 97.2344 1.42685 100.359 2.42686C103.484 3.42685 105.984 4.9581 107.859 7.0206C109.734 9.0831 111.078 11.6925 111.891 14.8487C112.734 18.005 113.156 21.7394 113.156 26.0519V41.0519C113.156 46.1768 114.187 49.8331 116.25 52.0206C118.344 54.2081 122 55.3018 127.219 55.3018V61.1143C122.156 61.1143 118.031 60.7237 114.844 59.9425C111.687 59.1612 109.25 58.0519 107.531 56.6143C105.812 55.1769 104.625 53.4581 103.969 51.4581C103.344 49.4581 103.031 47.2394 103.031 44.8019V26.0519C103.031 22.3956 102.594 19.3956 101.719 17.0519C100.875 14.6769 99.4062 12.9269 97.3125 11.8018C95.25 10.6769 92.4062 10.1144 88.7812 10.1144V0.926849ZM127.219 55.3018V66.5518H116.156V55.3018H127.219Z" fill="#4188D9"/>
</svg>
