<svg width="127" height="120" viewBox="0 0 127 120" fill="none" xmlns="http://www.w3.org/2000/svg">
<path d="M88 21.7668C60.5 21.7668 68.75 73.5626 55 110L38.5 102.302C66 102.302 57.75 48.8126 71.5 11L88 21.7668Z" fill="#5C9CE5"/>
<path d="M0 60.1875V54.375C5.21875 54.375 8.85937 53.2813 10.9219 51.0938C13.0156 48.9063 14.0625 45.25 14.0625 40.125V25.125C14.0625 20.8125 14.4687 17.0781 15.2812 13.9219C16.125 10.7656 17.4844 8.15625 19.3594 6.09375C21.2344 4.03125 23.7344 2.50001 26.8594 1.50001C29.9844 0.500002 33.8437 0 38.4375 0V9.1875C34.8125 9.1875 31.9531 9.75 29.8594 10.875C27.7969 12 26.3281 13.75 25.4531 16.125C24.6094 18.4688 24.1875 21.4688 24.1875 25.125V43.875C24.1875 46.3125 23.8594 48.5313 23.2031 50.5313C22.5781 52.5313 21.4062 54.25 19.6875 55.6875C17.9687 57.125 15.5156 58.2344 12.3281 59.0156C9.17187 59.7969 5.0625 60.1875 0 60.1875ZM38.4375 120C33.8437 120 29.9844 119.5 26.8594 118.5C23.7344 117.5 21.2344 115.969 19.3594 113.906C17.4844 111.844 16.125 109.234 15.2812 106.078C14.4687 102.922 14.0625 99.1875 14.0625 94.875V79.875C14.0625 74.75 13.0156 71.0937 10.9219 68.9062C8.85937 66.7187 5.21875 65.625 0 65.625V59.8125C5.0625 59.8125 9.17187 60.2031 12.3281 60.9844C15.5156 61.7656 17.9687 62.875 19.6875 64.3125C21.4062 65.75 22.5781 67.4688 23.2031 69.4688C23.8594 71.4687 24.1875 73.6875 24.1875 76.125V94.875C24.1875 98.5313 24.6094 101.531 25.4531 103.875C26.3281 106.219 27.7969 107.953 29.8594 109.078C31.9531 110.234 34.8125 110.812 38.4375 110.812V120ZM0 65.625V54.375H11.0625V65.625H0Z" fill="#5C9CE5"/>
<path d="M126.437 59.8125V65.625C121.219 65.625 117.562 66.7187 115.469 68.9062C113.406 71.0937 112.375 74.75 112.375 79.875V94.875C112.375 99.1875 111.953 102.922 111.109 106.078C110.297 109.234 108.953 111.844 107.078 113.906C105.203 115.969 102.703 117.5 99.5781 118.5C96.4531 119.5 92.5937 120 88 120V110.812C91.625 110.812 94.4687 110.234 96.5312 109.078C98.625 107.953 100.094 106.219 100.937 103.875C101.812 101.531 102.25 98.5313 102.25 94.875V76.125C102.25 73.6875 102.562 71.4687 103.187 69.4688C103.844 67.4688 105.031 65.75 106.75 64.3125C108.469 62.875 110.906 61.7656 114.062 60.9844C117.25 60.2031 121.375 59.8125 126.437 59.8125ZM88 0C92.5937 0 96.4531 0.500002 99.5781 1.50001C102.703 2.50001 105.203 4.03125 107.078 6.09375C108.953 8.15625 110.297 10.7656 111.109 13.9219C111.953 17.0781 112.375 20.8125 112.375 25.125V40.125C112.375 45.25 113.406 48.9063 115.469 51.0938C117.562 53.2813 121.219 54.375 126.437 54.375V60.1875C121.375 60.1875 117.25 59.7969 114.062 59.0156C110.906 58.2344 108.469 57.125 106.75 55.6875C105.031 54.25 103.844 52.5313 103.187 50.5313C102.562 48.5313 102.25 46.3125 102.25 43.875V25.125C102.25 21.4688 101.812 18.4688 100.937 16.125C100.094 13.75 98.625 12 96.5312 10.875C94.4687 9.75 91.625 9.1875 88 9.1875V0ZM126.437 54.375V65.625H115.375V54.375H126.437Z" fill="#5C9CE5"/>
</svg>
